<?xml version="1.0" encoding="UTF-8" standalone="no"?>
<!DOCTYPE svg PUBLIC "-//W3C//DTD SVG 1.1//EN"
 "http://www.w3.org/Graphics/SVG/1.1/DTD/svg11.dtd">
<!-- Generated by graphviz version 2.43.0 (0)
 -->
<!-- Title: G Pages: 1 -->
<svg width="321pt" height="238pt"
 viewBox="0.00 0.00 321.00 238.00" xmlns="http://www.w3.org/2000/svg" xmlns:xlink="http://www.w3.org/1999/xlink">
<g id="graph0" class="graph" transform="scale(1 1) rotate(0) translate(4 234)">
<title>G</title><style>.edge>path:hover{stroke-width:8}</style>
<polygon fill="white" stroke="transparent" points="-4,4 -4,-234 317,-234 317,4 -4,4"/>
<g id="clust1" class="cluster">
<title>cluster_calculation</title><style>.edge>path:hover{stroke-width:8}</style>
<polygon fill="none" stroke="black" points="158,-64 158,-139 256,-139 256,-64 158,-64"/>
<text text-anchor="middle" x="207" y="-123.8" font-family="Times,serif" font-size="14.00">calculation</text>
</g>
<g id="clust2" class="cluster">
<title>cluster_managerrequests</title><style>.edge>path:hover{stroke-width:8}</style>
<polygon fill="none" stroke="black" points="8,-64 8,-139 150,-139 150,-64 8,-64"/>
<text text-anchor="middle" x="79" y="-123.8" font-family="Times,serif" font-size="14.00">managerrequests</text>
</g>
<g id="clust3" class="cluster">
<title>cluster_mongodbclient</title><style>.edge>path:hover{stroke-width:8}</style>
<polygon fill="none" stroke="black" points="177,-147 177,-222 305,-222 305,-147 177,-147"/>
<text text-anchor="middle" x="241" y="-206.8" font-family="Times,serif" font-size="14.00">mongodbclient</text>
</g>
<g id="clust4" class="cluster">
<title>cluster_requests</title><style>.edge>path:hover{stroke-width:8}</style>
<polygon fill="none" stroke="black" points="36,-147 36,-222 122,-222 122,-147 36,-147"/>
<text text-anchor="middle" x="79" y="-206.8" font-family="Times,serif" font-size="14.00">requests</text>
</g>
<!-- calculation -->
<g id="node1" class="node">
<title>calculation</title><style>.edge>path:hover{stroke-width:8}</style>
<ellipse fill="#b34c4c" stroke="black" cx="207" cy="-90" rx="41.41" ry="18"/>
<text text-anchor="middle" x="207" y="-87.5" font-family="Helvetica,sans-Serif" font-size="10.00" fill="#ffffff">calculation</text>
</g>
<!-- cloud_scheduler -->
<g id="node5" class="node">
<title>cloud_scheduler</title><style>.edge>path:hover{stroke-width:8}</style>
<ellipse fill="#92a446" stroke="black" cx="207" cy="-18" rx="55.85" ry="18"/>
<text text-anchor="middle" x="207" y="-15.5" font-family="Helvetica,sans-Serif" font-size="10.00" fill="#000000">cloud_scheduler</text>
</g>
<!-- calculation&#45;&gt;cloud_scheduler -->
<g id="edge1" class="edge">
<title>calculation&#45;&gt;cloud_scheduler</title><style>.edge>path:hover{stroke-width:8}</style>
<path fill="none" stroke="black" d="M207,-64C207,-58.2 207,-52 207,-46.11"/>
<polygon fill="#000000" stroke="black" points="210.5,-46.1 207,-36.1 203.5,-46.1 210.5,-46.1"/>
</g>
<!-- manager_requests -->
<g id="node2" class="node">
<title>manager_requests</title><style>.edge>path:hover{stroke-width:8}</style>
<ellipse fill="#4cb375" stroke="black" cx="79" cy="-90" rx="62.97" ry="18"/>
<text text-anchor="middle" x="79" y="-87.5" font-family="Helvetica,sans-Serif" font-size="10.00" fill="#000000">manager_requests</text>
</g>
<!-- manager_requests&#45;&gt;cloud_scheduler -->
<g id="edge2" class="edge">
<title>manager_requests&#45;&gt;cloud_scheduler</title><style>.edge>path:hover{stroke-width:8}</style>
<path fill="none" stroke="black" d="M124.71,-64C139.83,-55.73 156.44,-46.65 170.75,-38.82"/>
<polygon fill="#000000" stroke="black" points="172.63,-41.79 179.72,-33.92 169.27,-35.65 172.63,-41.79"/>
</g>
<!-- mongodb_client -->
<g id="node3" class="node">
<title>mongodb_client</title><style>.edge>path:hover{stroke-width:8}</style>
<ellipse fill="#4778c2" stroke="black" cx="241" cy="-173" rx="55.85" ry="18"/>
<text text-anchor="middle" x="241" y="-170.5" font-family="Helvetica,sans-Serif" font-size="10.00" fill="#ffffff">mongodb_client</text>
</g>
<!-- mongodb_client&#45;&gt;calculation -->
<g id="edge3" class="edge">
<title>mongodb_client&#45;&gt;calculation</title><style>.edge>path:hover{stroke-width:8}</style>
<path fill="none" stroke="black" d="M231.02,-147C230.05,-145 229.08,-143 228.11,-141"/>
<polygon fill="#000000" stroke="black" points="234.65,-146.47 227.15,-139 228.35,-149.52 234.65,-146.47"/>
</g>
<!-- mongodb_client&#45;&gt;cloud_scheduler -->
<g id="edge4" class="edge">
<title>mongodb_client&#45;&gt;cloud_scheduler</title><style>.edge>path:hover{stroke-width:8}</style>
<path fill="none" stroke="black" d="M257.13,-147C258.29,-144.38 259.28,-141.68 260,-139 268.61,-106.8 274,-94.25 260,-64 255.83,-54.99 248.87,-47.12 241.34,-40.6"/>
<polygon fill="#000000" stroke="black" points="243.07,-37.5 233.05,-34.05 238.73,-43 243.07,-37.5"/>
</g>
<!-- requests -->
<g id="node4" class="node">
<title>requests</title><style>.edge>path:hover{stroke-width:8}</style>
<ellipse fill="#a640c0" stroke="black" cx="79" cy="-173" rx="34.96" ry="18"/>
<text text-anchor="middle" x="79" y="-170.5" font-family="Helvetica,sans-Serif" font-size="10.00" fill="#ffffff">requests</text>
</g>
<!-- requests&#45;&gt;manager_requests -->
<g id="edge5" class="edge">
<title>requests&#45;&gt;manager_requests</title><style>.edge>path:hover{stroke-width:8}</style>
<path fill="none" stroke="black" d="M79,-147C79,-145 79,-143 79,-141"/>
<polygon fill="#000000" stroke="black" points="82.5,-149 79,-139 75.5,-149 82.5,-149"/>
</g>
</g>
</svg>
