<?xml version="1.0" encoding="UTF-8" standalone="no"?>
<!DOCTYPE svg PUBLIC "-//W3C//DTD SVG 1.1//EN"
 "http://www.w3.org/Graphics/SVG/1.1/DTD/svg11.dtd">
<!-- Generated by graphviz version 2.43.0 (0)
 -->
<!-- Title: G Pages: 1 -->
<svg width="283pt" height="188pt"
 viewBox="0.00 0.00 282.91 188.00" xmlns="http://www.w3.org/2000/svg" xmlns:xlink="http://www.w3.org/1999/xlink">
<g id="graph0" class="graph" transform="scale(1 1) rotate(0) translate(4 184)">
<title>G</title><style>.edge>path:hover{stroke-width:8}</style>
<polygon fill="white" stroke="transparent" points="-4,4 -4,-184 278.91,-184 278.91,4 -4,4"/>
<!-- calculation -->
<g id="node1" class="node">
<title>calculation</title><style>.edge>path:hover{stroke-width:8}</style>
<ellipse fill="#b34c4c" stroke="black" cx="184.99" cy="-90" rx="41.41" ry="18"/>
<text text-anchor="middle" x="184.99" y="-87.5" font-family="Helvetica,sans-Serif" font-size="10.00" fill="#ffffff">calculation</text>
</g>
<!-- cluster_scheduler -->
<g id="node2" class="node">
<title>cluster_scheduler</title><style>.edge>path:hover{stroke-width:8}</style>
<ellipse fill="#75a446" stroke="black" cx="184.99" cy="-18" rx="60.09" ry="18"/>
<text text-anchor="middle" x="184.99" y="-15.5" font-family="Helvetica,sans-Serif" font-size="10.00" fill="#000000">cluster_scheduler</text>
</g>
<!-- calculation&#45;&gt;cluster_scheduler -->
<g id="edge1" class="edge">
<title>calculation&#45;&gt;cluster_scheduler</title><style>.edge>path:hover{stroke-width:8}</style>
<path fill="none" stroke="black" d="M184.99,-71.7C184.99,-63.98 184.99,-54.71 184.99,-46.11"/>
<polygon fill="#b34c4c" stroke="black" points="188.49,-46.1 184.99,-36.1 181.49,-46.1 188.49,-46.1"/>
</g>
<!-- manager_requests -->
<g id="node3" class="node">
<title>manager_requests</title><style>.edge>path:hover{stroke-width:8}</style>
<ellipse fill="#53b6b6" stroke="black" cx="62.99" cy="-90" rx="62.97" ry="18"/>
<text text-anchor="middle" x="62.99" y="-87.5" font-family="Helvetica,sans-Serif" font-size="10.00" fill="#000000">manager_requests</text>
</g>
<!-- manager_requests&#45;&gt;cluster_scheduler -->
<g id="edge2" class="edge">
<title>manager_requests&#45;&gt;cluster_scheduler</title><style>.edge>path:hover{stroke-width:8}</style>
<path fill="none" stroke="black" d="M89.76,-73.64C107.32,-63.56 130.48,-50.28 149.56,-39.33"/>
<polygon fill="#53b6b6" stroke="black" points="151.34,-42.34 158.28,-34.33 147.86,-36.27 151.34,-42.34"/>
</g>
<!-- mongodb_client -->
<g id="node4" class="node">
<title>mongodb_client</title><style>.edge>path:hover{stroke-width:8}</style>
<ellipse fill="#8547c2" stroke="black" cx="218.99" cy="-162" rx="55.85" ry="18"/>
<text text-anchor="middle" x="218.99" y="-159.5" font-family="Helvetica,sans-Serif" font-size="10.00" fill="#ffffff">mongodb_client</text>
</g>
<!-- mongodb_client&#45;&gt;calculation -->
<g id="edge3" class="edge">
<title>mongodb_client&#45;&gt;calculation</title><style>.edge>path:hover{stroke-width:8}</style>
<path fill="none" stroke="black" d="M210.76,-144.05C206.79,-135.89 201.94,-125.91 197.53,-116.82"/>
<polygon fill="#8547c2" stroke="black" points="200.66,-115.25 193.14,-107.79 194.36,-118.31 200.66,-115.25"/>
</g>
<!-- mongodb_client&#45;&gt;cluster_scheduler -->
<g id="edge4" class="edge">
<title>mongodb_client&#45;&gt;cluster_scheduler</title><style>.edge>path:hover{stroke-width:8}</style>
<path fill="none" stroke="black" d="M227.38,-144.05C235.25,-125.72 244.49,-95.93 234.99,-72 230.47,-60.63 222.24,-50.29 213.73,-41.83"/>
<polygon fill="#8547c2" stroke="black" points="215.98,-39.14 206.28,-34.89 211.21,-44.26 215.98,-39.14"/>
</g>
</g>
</svg>
